<svg width="229" height="32" viewBox="0 0 229 32" fill="none" xmlns="http://www.w3.org/2000/svg">
<path d="M26.522 3.06021L31.464 22.4517C31.9167 24.2681 30.8228 26.0853 28.9332 26.5677L27.2737 26.9759L25.693 27.3457L9.24466 31.3874C7.39574 31.8691 5.50945 30.7572 5.05677 28.94L0.114705 9.54853C-0.37618 7.73134 0.755928 5.91497 2.60484 5.47006L22.3349 0.612797C24.183 0.130336 26.0693 1.24302 26.522 3.06021Z" fill="#EA5B0C"></path>
<path d="M31.464 22.4517L26.522 3.06021C26.0693 1.24302 24.183 0.130336 22.3349 0.612797L2.60484 5.47006C0.755928 5.91497 -0.37618 7.73134 0.114705 9.54853L5.05677 28.94C5.50945 30.7572 7.39574 31.8691 9.24466 31.3874L25.693 27.3457C25.6557 27.309 25.6174 27.2714 25.5801 27.2347C24.9006 26.5302 23.9205 26.1963 22.6373 26.2338L13.1302 26.1228C10.5653 26.1228 9.8103 24.3056 9.77292 23.3048L9.09349 16.2973H6.52777C6.11247 16.2973 5.77358 15.9634 5.77358 15.556C5.77358 15.3707 5.84917 15.1479 6.00034 15.0368L15.1295 6.35988C15.3936 6.10028 15.8463 6.06355 16.1478 6.32314L25.7678 14.6287C26.1075 14.8883 26.1449 15.3699 25.8807 15.6671C25.7296 15.8524 25.5037 15.9634 25.2769 15.9267H23.2776V22.6003C23.2776 23.0085 22.9379 23.3415 22.5235 23.3415L17.4194 23.2934L15.8454 19.2263L14.2989 21.4884V12.8115V12.7747L19.9951 19.4116L17.3164 18.8557C17.3164 18.8557 17.8447 20.5611 18.2592 21.859H21.805V15.2221C21.805 14.814 22.1447 14.4809 22.5592 14.4809H23.3134L15.6926 7.91829L8.41157 14.8515H9.80781C10.1849 14.8515 10.5246 15.1479 10.562 15.5193L11.3162 23.2313V23.2681C11.3162 23.4909 11.4673 24.6771 13.1651 24.6771L22.6339 24.7514C24.3691 24.6771 25.7271 25.1595 26.708 26.2347C26.9348 26.4575 27.1233 26.7163 27.2737 26.9759L28.9332 26.5677C30.8228 26.0853 31.9167 24.2681 31.464 22.4517Z" fill="white"></path>
<path d="M57.2273 23.6895L57.2248 14.3423C57.2248 12.859 57.0363 11.8206 56.621 11.2647C56.2057 10.7088 55.4889 10.4492 54.4706 10.4492C53.4141 10.3749 52.3575 10.783 51.6407 11.5618C50.9613 12.3039 50.6216 13.3415 50.6216 14.677L50.6241 23.6536H48.021L48.0185 14.344C48.0185 12.8607 47.8299 11.8223 47.4146 11.2663C46.9993 10.7104 46.2825 10.4508 45.2642 10.4508C44.2077 10.3765 43.1512 10.7847 42.4344 11.5635C41.7549 12.3055 41.4152 13.3431 41.4152 14.6787L41.4177 23.6552H38.8902L38.8877 8.21808H41.3022V10.7479C42.2832 9.15361 44.0947 8.22624 45.981 8.30053C47.717 8.22624 49.3018 9.11606 50.0933 10.6369C50.659 9.89486 51.414 9.30219 52.2437 8.85728C53.0735 8.48666 54.0171 8.26379 54.9224 8.30135C55.7904 8.26461 56.6584 8.44992 57.4508 8.82054C58.1302 9.15443 58.734 9.67363 59.1111 10.3038C59.3379 10.712 59.4882 11.1937 59.5638 11.6386C59.6768 12.4541 59.715 13.3072 59.715 14.1235L59.7175 23.656L57.2273 23.6895Z" fill="white"></path>
<path d="M73.4897 20.1033V12.8631C73.4897 11.3422 72.9988 10.1838 72.0561 9.45971C71.1133 8.7356 69.6033 8.37396 67.604 8.37396C65.7177 8.37396 64.2459 8.80826 63.1893 9.64094C62.1328 10.4736 61.529 11.7765 61.6045 13.0802V13.1888H64.0191C63.9817 12.4288 64.2833 11.6679 64.9245 11.1977C65.5283 10.7634 66.3963 10.5095 67.5658 10.5095C68.6979 10.5095 69.5277 10.6908 70.0942 11.0524C70.6598 11.414 70.9622 12.0663 70.9239 12.7178C70.9613 13.1161 70.9239 13.4778 70.7728 13.8402C70.6598 14.0574 70.4331 14.2019 70.2071 14.2745C69.4521 14.4558 68.6605 14.6003 67.8299 14.6362L66.0566 14.8174C64.3206 15.0346 63.0382 15.5056 62.1702 16.2656C61.3022 17.0624 60.8495 18.184 60.8869 19.3424C60.8869 20.6821 61.3022 21.7678 62.1702 22.5286C63.0382 23.2887 64.245 23.687 65.7551 23.687C66.736 23.687 67.6796 23.5058 68.585 23.1074C69.5285 22.6731 70.3957 22.0576 71.0751 21.3335V21.4421C71.0377 22.0217 71.2637 22.8054 71.7163 23.2038C72.2072 23.5654 72.8858 23.7246 73.4897 23.6887C73.4897 23.6895 73.4897 20.2478 73.4897 20.1033ZM70.8866 18.1122C70.9239 19.1261 70.4339 20.0673 69.5659 20.6461C68.585 21.3343 67.4155 21.696 66.2078 21.6233C65.491 21.6592 64.7741 21.4788 64.2077 21.0437C63.7168 20.6094 63.4526 20.0298 63.4909 19.3783C63.4535 18.7628 63.6794 18.184 64.0947 17.7489C64.6603 17.3146 65.3398 17.0248 66.0948 16.9522C66.3963 16.9162 66.8116 16.8436 67.4155 16.7709C69.0376 16.5897 70.208 16.2999 70.8866 15.9383V18.1122Z" fill="white"></path>
<path d="M88.8841 3.32977V23.6887H86.4313V21.4004C85.8275 22.1245 85.0733 22.7042 84.2427 23.1025C83.4129 23.5009 82.4693 23.6821 81.564 23.6821C79.7151 23.7548 77.9417 22.994 76.7723 21.6176C75.5646 20.2412 74.9615 18.3587 74.9615 16.0403C74.9615 13.6868 75.5654 11.8035 76.7723 10.3912C77.9417 9.01482 79.7151 8.21806 81.564 8.29072C82.5076 8.29072 83.4885 8.47195 84.3565 8.83359C85.1862 9.23197 85.9031 9.81157 86.4695 10.4998V3.32977H88.8841ZM86.5451 15.8599C86.5451 14.0852 86.168 12.7096 85.413 11.8043C84.658 10.899 83.5267 10.4647 82.0549 10.4647C80.7716 10.392 79.5265 10.9716 78.7341 11.9496C77.9417 12.9276 77.5647 14.3399 77.5647 16.1864C77.5647 17.8159 77.98 19.1196 78.7723 20.0616C79.5647 21.0029 80.8098 21.5466 82.0549 21.4739C83.3382 21.5466 84.545 21.0029 85.3374 20.0257C86.1298 19.0469 86.5451 17.6706 86.5451 15.8599Z" fill="white"></path>
<path d="M101.26 18.5399H103.75C103.562 20.0249 102.769 21.3645 101.6 22.3066C100.355 23.2478 98.7699 23.7548 97.1851 23.6829C95.1103 23.6829 93.4499 22.9947 92.2422 21.6551C91.0345 20.3155 90.4315 18.4681 90.4315 16.1505C90.4315 13.6876 91.0354 11.7683 92.2422 10.3928C93.4491 9.01724 95.1094 8.32825 97.1851 8.32825C99.3355 8.32825 101.034 8.97969 102.204 10.2475C103.373 11.5153 103.977 13.3259 103.977 15.6435C103.977 15.9333 103.977 16.1505 103.977 16.295C103.977 16.4395 103.977 16.5848 103.94 16.6934H93.0728C93.1102 18.2142 93.4881 19.3734 94.2423 20.2061C95.7889 21.6543 98.166 21.8723 99.9394 20.6771C100.656 20.1334 101.109 19.3726 101.26 18.5399ZM93.0346 14.6647H101.297C101.297 13.3251 100.958 12.2745 100.241 11.5504C99.5241 10.8263 98.5431 10.4638 97.2599 10.4638C96.166 10.4279 95.1094 10.7895 94.3171 11.5504C93.5629 12.2386 93.1476 13.2892 93.0346 14.6647Z" fill="white"></path>
<path d="M105.109 6.14862V3.32977H107.637V6.14781H105.109V6.14862ZM105.109 23.6895V8.205H107.637V23.6895H105.109Z" fill="white"></path>
<path d="M109.788 23.6895V8.56013H112.241V11.2524C112.542 10.3422 113.146 9.54627 113.863 8.97728C114.618 8.44666 115.485 8.18134 116.391 8.21889H116.806C116.882 8.21889 116.958 8.21889 117.071 8.25645V10.9488L116.844 10.9112H116.467C115.109 10.9112 114.09 11.29 113.373 12.0108C112.656 12.7317 112.316 13.8313 112.316 15.2338V23.6519L109.788 23.6895Z" fill="white"></path>
<path d="M131.37 23.6895V8.67032H135.257V10.3389C135.785 9.70871 136.426 9.15196 137.181 8.78134C137.898 8.41072 138.69 8.26214 139.52 8.26214C140.388 8.22541 141.218 8.41072 142.01 8.78134C142.727 9.18951 143.368 9.74544 143.784 10.45C144.765 9.04094 146.387 8.18785 148.123 8.22459C149.669 8.22459 150.877 8.6695 151.782 9.55932C152.688 10.4491 153.14 11.6361 153.14 13.1937V23.6887H149.103V14.01C149.14 13.3798 148.914 12.7863 148.499 12.3039C148.046 11.8957 147.442 11.6737 146.839 11.7104C146.122 11.6737 145.442 11.97 144.952 12.4892C144.461 13.0827 144.197 13.8239 144.235 14.566V23.6519H140.236V14.01C140.274 13.3798 140.085 12.7863 139.67 12.3039C139.255 11.8957 138.651 11.6737 138.048 11.7104C137.332 11.6737 136.652 11.97 136.162 12.4892C135.671 13.0827 135.407 13.8239 135.483 14.6027V23.6887L131.37 23.6895Z" fill="white"></path>
<path d="M183.363 3.32977V23.6887H179.477V21.1923C178.986 21.9515 178.307 22.6021 177.477 23.0723C176.684 23.4699 175.779 23.687 174.874 23.687C173.063 23.723 171.364 22.9278 170.308 21.5539C169.138 20.1441 168.572 18.2632 168.572 15.9489C168.572 13.6345 169.137 11.7186 170.308 10.272C171.364 8.86216 173.025 8.06622 174.835 8.10214C175.741 8.10214 176.646 8.28255 177.477 8.68093C178.269 9.07849 178.91 9.6932 179.401 10.4165V3.32977H183.363ZM172.686 15.7325C172.686 17.215 172.987 18.3359 173.554 19.1318C174.119 19.891 175.063 20.3612 176.082 20.2886C177.063 20.3245 178.007 19.891 178.572 19.1318C179.138 18.3726 179.44 17.215 179.44 15.7325C179.44 14.3586 179.139 13.2737 178.535 12.5145C177.931 11.7553 176.987 11.3577 176.006 11.3937C175.063 11.3577 174.158 11.7912 173.592 12.5504C172.987 13.3464 172.686 14.3946 172.686 15.7325Z" fill="white"></path>
<path d="M194.721 18.7922H198.796C198.456 20.2306 197.551 21.5245 196.306 22.3874C194.985 23.2862 193.363 23.754 191.74 23.6821C189.514 23.6821 187.778 22.9629 186.496 21.5613C185.212 20.1588 184.571 18.2175 184.571 15.8085C184.571 13.4353 185.212 11.53 186.496 10.1634C187.778 8.79685 189.514 8.11438 191.703 8.11438C194.042 8.11438 195.853 8.79766 197.136 10.1275C198.419 11.4581 199.06 13.3994 199.06 15.9162C199.06 16.2036 199.06 16.4199 199.06 16.5277C199.06 16.6713 199.06 16.7791 199.023 16.9228H188.835C188.873 18.073 189.175 18.9359 189.703 19.5114C190.307 20.1229 191.137 20.4461 191.968 20.3743C192.571 20.4102 193.175 20.2665 193.704 19.9792C194.155 19.691 194.532 19.26 194.721 18.7922ZM188.759 14.406H194.758C194.796 13.579 194.494 12.788 193.929 12.1765C193.325 11.6369 192.532 11.3496 191.74 11.4214C190.948 11.3855 190.193 11.6728 189.627 12.2124C189.099 12.788 188.797 13.579 188.759 14.406Z" fill="white"></path>
<path d="M204.153 8.65234H200.078V23.6209H204.153V8.65234Z" fill="white"></path>
<path d="M200.078 3.32977V7.00089H203.021C203.474 6.667 203.889 6.22209 204.19 5.73963V3.32977H200.078Z" fill="white"></path>
<path d="M206.078 23.6209V8.65238H209.851V11.1218C210.267 10.263 210.908 9.51118 211.738 8.9381C212.493 8.43687 213.36 8.22217 214.266 8.22217H214.643C214.719 8.22217 214.794 8.22217 214.87 8.25809V12.1953H213.512C212.38 12.1953 211.55 12.4819 210.983 13.0182C210.417 13.5545 210.154 14.3782 210.154 15.4877V23.6201H206.078V23.6209Z" fill="white"></path>
<path d="M228 20.4641V12.2313C228.037 11.0141 227.396 9.83282 226.302 9.18872C225.17 8.47279 223.51 8.15033 221.397 8.15033C219.435 8.15033 217.926 8.57973 216.832 9.43853C215.738 10.2973 215.096 11.5863 215.171 12.9464V13.1611H218.982V12.9464C218.945 12.4092 219.209 11.908 219.661 11.6223C220.227 11.2647 220.869 11.121 221.548 11.1569C222.453 11.1569 223.095 11.2998 223.472 11.5504C223.887 11.837 224.113 12.3382 224.038 12.8035C224.038 13.5554 223.17 14.0207 221.435 14.2354C220.755 14.3072 220.19 14.3783 219.774 14.4501C217.925 14.7007 216.605 15.2019 215.812 15.9179C215.02 16.6338 214.605 17.6714 214.605 19.0674C214.605 20.5352 215.02 21.6805 215.812 22.4674C216.605 23.2552 217.774 23.6846 219.246 23.6846C220.265 23.7205 221.246 23.5058 222.152 23.0764C222.981 22.683 223.661 22.074 224.189 21.358C224.189 21.6805 224.49 23.434 224.604 23.6846H228C228 23.6854 228 20.7858 228 20.4641ZM224.113 17.3857C224.151 18.2804 223.812 19.1751 223.17 19.82C222.453 20.4282 221.509 20.7507 220.567 20.7147C220.038 20.7507 219.51 20.5719 219.095 20.2494C218.718 19.927 218.529 19.4617 218.529 18.9612C218.492 18.5318 218.642 18.1024 218.945 17.7441C219.36 17.3865 219.888 17.1359 220.454 17.0281L221.812 16.7416C222.604 16.5987 223.358 16.3481 224.113 16.0256V17.3857Z" fill="white"></path>
<path d="M167.534 20.4526V12.192C167.572 10.9708 166.931 9.78544 165.837 9.13889C164.705 8.4205 163.044 8.09723 160.932 8.09723C158.97 8.09723 157.461 8.52826 156.366 9.39032C155.272 10.2524 154.63 11.5455 154.706 12.9104V13.1259H158.517V12.9104C158.479 12.3716 158.743 11.8688 159.196 11.5814C159.762 11.2222 160.404 11.0785 161.082 11.1144C161.988 11.1144 162.629 11.2581 163.007 11.5096C163.422 11.7969 163.648 12.2998 163.573 12.7667C163.573 13.521 162.705 13.988 160.969 14.2035C160.29 14.2753 159.724 14.3472 159.309 14.419C157.46 14.6705 156.14 15.1733 155.347 15.8917C154.555 16.6101 154.14 17.6518 154.14 19.0526C154.14 20.5253 154.555 21.6747 155.347 22.4649C156.14 23.2552 157.309 23.6854 158.781 23.6854C159.8 23.7213 160.781 23.5058 161.686 23.0748C162.516 22.6796 163.195 22.069 163.724 21.3506C163.724 21.6739 164.025 23.4339 164.139 23.6854H167.534C167.534 23.6854 167.534 20.7759 167.534 20.4526ZM163.648 17.3636C163.685 18.2616 163.347 19.1596 162.705 19.8061C161.988 20.4167 161.044 20.74 160.102 20.7041C159.573 20.74 159.045 20.5604 158.63 20.2371C158.253 19.9139 158.064 19.4469 158.064 18.944C158.027 18.513 158.177 18.082 158.479 17.7228C158.895 17.3636 159.423 17.1122 159.989 17.0044L161.347 16.717C162.139 16.5734 162.893 16.3219 163.648 15.9987V17.3636Z" fill="white"></path>
<path d="M129.275 20.1008V12.8606C129.275 11.3398 128.785 10.1814 127.842 9.45726C126.898 8.73316 125.389 8.37152 123.39 8.37152C121.503 8.37152 120.032 8.80582 118.975 9.63849C117.919 10.4712 117.315 11.7741 117.39 13.0778V13.1863H119.805C119.767 12.4263 120.069 11.6655 120.71 11.1953C121.314 10.761 122.182 10.5071 123.352 10.5071C124.484 10.5071 125.313 10.6883 125.88 11.05C126.446 11.4116 126.748 12.0639 126.71 12.7153C126.747 13.1137 126.71 13.4753 126.559 13.8378C126.446 14.0549 126.219 14.1994 125.993 14.2721C125.238 14.4533 124.446 14.5978 123.616 14.6337L121.842 14.815C120.106 15.0321 118.824 15.5031 117.956 16.2632C117.088 17.0599 116.635 18.1816 116.673 19.34C116.673 20.6796 117.089 21.7653 117.956 22.5262C118.824 23.2862 120.031 23.6846 121.541 23.6846C122.522 23.6846 123.465 23.5034 124.371 23.105C125.314 22.6707 126.181 22.0551 126.861 21.331V21.4396C126.823 22.0192 127.049 22.8029 127.502 23.2013C127.993 23.5629 128.672 23.7221 129.275 23.6862C129.275 23.687 129.275 20.2453 129.275 20.1008ZM126.672 18.1097C126.71 19.1236 126.22 20.0649 125.352 20.6437C124.371 21.3319 123.201 21.6935 121.994 21.6209C121.277 21.6568 120.56 21.4764 119.993 21.0412C119.503 20.6069 119.238 20.0273 119.277 19.3759C119.239 18.7604 119.465 18.1816 119.88 17.7465C120.446 17.3122 121.126 17.0224 121.881 16.9497C122.182 16.9138 122.597 16.8411 123.201 16.7685C124.823 16.5872 125.994 16.2974 126.672 15.9358V18.1097Z" fill="white"></path>
</svg>